# xmcd
#
# Track frame offsets: 
#        150
#        27355
#        48766
#        69214
#        94846
#        134258
#        149018
#        166049
#        194984
#        220175
#        246326
#
# Disc length: 3597 seconds
#
# Revision: 0
# Processed by: cddbd v1.5.2PL0 Copyright (c) Steve Scherf et al.
# Submitted via: ExactAudioCopy v0.99pb4
#
DISCID=a20e0b0b
DTITLE=Matt Schofield - Heads, Tails and Aces
DYEAR=2009
DGENRE=Blues
TTITLE0=What I Wanna Hear
TTITLE1=Live Wire
TTITLE2=War We Wage
TTITLE3=Betting Man
TTITLE4=Lay It Down
TTITLE5=Can't Put You Down
TTITLE6=Woman Across The River
TTITLE7=Nothing Left
TTITLE8=I Told Ya
TTITLE9=Stranger Blues
TTITLE10=Not Raining Now
EXTD=
EXTT0=
EXTT1=
EXTT2=
EXTT3=
EXTT4=
EXTT5=
EXTT6=
EXTT7=
EXTT8=
EXTT9=
EXTT10=
PLAYORDER=
